<?xml version="1.0" standalone="no"?>
<!DOCTYPE svg PUBLIC "-//W3C//DTD SVG 20010904//EN"
 "http://www.w3.org/TR/2001/REC-SVG-20010904/DTD/svg10.dtd">
<svg version="1.0" xmlns="http://www.w3.org/2000/svg"
 width="204.000000pt" height="203.000000pt" viewBox="0 0 204.000000 203.000000"
 preserveAspectRatio="xMidYMid meet">

<g transform="translate(0.000000,203.000000) scale(0.100000,-0.100000)"
fill="#000000" stroke="none">
<path d="M986 1977 c-61 -95 -68 -136 -29 -180 9 -9 14 -19 12 -20 -43 -34
-48 -35 -105 -5 -93 46 -190 35 -337 -38 -53 -27 -72 -32 -87 -24 -54 29 -120
-7 -120 -66 0 -69 87 -99 132 -46 21 24 166 100 226 117 82 24 202 -14 202
-62 0 -38 25 -87 59 -116 82 -69 221 -5 221 102 0 47 60 83 138 82 84 0 240
-65 293 -122 35 -37 80 -39 114 -4 30 30 32 64 4 99 -22 28 -64 35 -99 16 -15
-8 -33 -4 -78 19 -87 44 -175 71 -230 71 -54 0 -126 -22 -153 -46 -16 -14 -20
-14 -47 6 -29 22 -29 23 -11 41 33 33 25 87 -25 164 l-44 69 -36 -57z"/>
<path d="M370 1495 c-6 -8 -71 -171 -143 -362 l-132 -348 -43 -3 c-23 -2 -42
-6 -42 -10 0 -21 64 -113 105 -151 171 -157 431 -145 588 28 31 34 77 109 77
125 0 3 -19 6 -42 8 l-42 3 -131 347 c-73 191 -138 354 -145 363 -16 19 -34
19 -50 0z m135 -419 c58 -153 105 -282 105 -287 0 -5 -96 -9 -215 -9 -118 0
-215 3 -215 8 0 11 213 572 216 569 2 -1 50 -128 109 -281z"/>
<path d="M1620 1490 c-9 -16 -120 -308 -252 -657 l-19 -53 -45 0 -45 0 17 -32
c55 -108 144 -184 253 -219 191 -59 397 27 487 204 l24 47 -43 0 -44 0 -133
353 c-73 193 -137 358 -143 365 -15 18 -45 14 -57 -8z m142 -420 c58 -153 103
-282 100 -285 -7 -6 -417 -7 -424 0 -6 6 204 565 213 565 3 0 53 -126 111
-280z"/>
<path d="M880 1388 c0 -24 22 -62 53 -92 16 -16 17 -52 17 -469 l0 -452 -36
-20 c-52 -28 -101 -90 -115 -146 l-13 -49 -87 0 c-78 0 -91 -3 -115 -23 -22
-19 -28 -34 -32 -80 l-4 -57 471 0 471 0 0 55 c0 46 -4 60 -25 80 -22 23 -32
25 -114 25 l-90 0 -11 43 c-17 62 -54 112 -105 142 l-45 27 0 457 c0 455 0
458 21 477 21 18 49 72 49 94 0 6 -52 10 -145 10 -144 0 -145 0 -145 -22z"/>
</g>
</svg>
